<?xml version="1.0" standalone="no"?>
<!DOCTYPE svg PUBLIC "-//W3C//DTD SVG 20010904//EN"
 "http://www.w3.org/TR/2001/REC-SVG-20010904/DTD/svg10.dtd">
<svg version="1.0" xmlns="http://www.w3.org/2000/svg"
 width="240.000000pt" height="240.000000pt" viewBox="0 0 240.000000 240.000000"
 preserveAspectRatio="xMidYMid meet">
<metadata>
Created by potrace 1.16, written by Peter Selinger 2001-2019
</metadata>
<g transform="translate(0.000000,240.000000) scale(0.100000,-0.100000)"
fill="#000000" stroke="none">
<path d="M1505 2286 c-88 -20 -162 -51 -239 -97 l-68 -41 -62 31 c-67 34 -175
61 -246 61 -72 0 -176 -26 -240 -61 -55 -29 -144 -112 -180 -167 -14 -20 -24
-23 -115 -26 -118 -4 -170 -23 -241 -88 -89 -82 -119 -180 -112 -364 6 -146
38 -248 119 -379 60 -97 154 -205 178 -205 8 0 195 -180 415 -399 375 -372
404 -399 444 -406 23 -4 61 -4 85 0 39 7 68 33 442 406 221 219 408 399 416
399 21 0 175 159 183 190 4 14 23 57 42 95 99 203 101 482 4 678 -85 174 -218
289 -405 353 -69 23 -99 28 -220 30 -94 3 -160 -1 -200 -10z m330 -120 c123
-32 243 -111 313 -204 94 -124 133 -237 130 -382 l-1 -85 -7 90 c-11 152 -16
162 -118 219 -187 106 -538 310 -566 329 -25 18 -33 19 -78 8 -74 -17 -165
-63 -236 -120 -34 -28 -67 -51 -73 -51 -7 0 -29 16 -51 36 -104 94 -246 123
-393 80 -11 -4 -4 1 15 10 24 12 61 17 120 17 106 0 179 -26 248 -89 28 -24
55 -44 62 -44 6 0 37 23 68 51 64 56 175 115 254 135 71 17 251 17 313 0z
m-43 -402 c129 -90 141 -239 28 -349 l-38 -37 -4 114 c-3 90 -8 123 -26 163
-30 66 -67 103 -116 116 -57 15 -27 31 51 26 50 -2 71 -9 105 -33z m-147 -367
c-22 -54 -79 -112 -141 -146 -30 -16 -54 -26 -54 -23 0 4 -41 29 -90 57 -50
27 -90 54 -90 59 0 4 28 37 63 72 53 55 73 68 135 90 39 13 98 28 130 32 l57
7 3 -55 c2 -34 -3 -70 -13 -93z m463 -26 c15 -15 40 -46 56 -69 l29 -42 -26
-37 c-15 -21 -56 -67 -91 -102 l-65 -65 -11 29 c-16 42 -76 112 -121 142 l-39
26 58 61 c33 34 69 81 81 104 l22 43 40 -32 c22 -17 52 -43 67 -58z"/>
</g>
</svg>
